PathFileType	4	(X/Y/Z)	pose_F01_0-96.trc
DataRate	CameraRate	NumFrames	NumMarkers	Units	OrigDataRate	OrigDataStartFrame	OrigNumFrames
30	30	6	21	m	30	60	96
Frame#	Time	CHip			RHip			RKnee			RAnkle			RBigToe			RSmallToe			RHeel			LHip			LKnee			LAnkle			LBigToe			LSmallToe			LHeel			Neck			Nose			RShoulder			RElbow			RWrist			LShoulder			LElbow			LWrist			
		X1	Y1	Z1	X2	Y2	Z2	X3	Y3	Z3	X4	Y4	Z4	X5	Y5	Z5	X6	Y6	Z6	X7	Y7	Z7	X8	Y8	Z8	X9	Y9	Z9	X10	Y10	Z10	X11	Y11	Z11	X12	Y12	Z12	X13	Y13	Z13	X14	Y14	Z14	X15	Y15	Z15	X16	Y16	Z16	X17	Y17	Z17	X18	Y18	Z18	X19	Y19	Z19	X20	Y20	Z20	X21	Y21	Z21	
60	2.0	-0.25305197867044354	1.8362828833228888	-0.6505948311702214	-0.27015852565211634	1.8324707071063993	-0.5858870735516459	-0.27598160267399197	1.7011624362276918	-0.585974487062338	-0.2940437348639068	1.5664527997580269	-0.5687626690440502	-0.2836998457404089	1.5343121291369106	-0.5142032003596485	-0.2954422256810362	1.5449801620014671	-0.49829272607585545	-0.29683270940609874	1.5498590577766882	-0.5813723988883704	-0.2387057307677173	1.837748480164969	-0.710509782038817	-0.24020108902411166	1.7061049644649782	-0.6990773420690619	-0.2420055273115262	1.5756574266640357	-0.7336205761882466	-0.23669904715775472	1.5380758360683568	-0.7075612060643779	-0.22583944660181093	1.5418812794334595	-0.743651994369399				-0.2492296909451747	1.990440058682014	-0.6681698673235315	-0.23301223899607332	2.0470211671521272	-0.6261120410844285	-0.27025452266533156	1.9842728164592975	-0.571476363157853	-0.28238018905798973	1.917356468318587	-0.5344412114439681	-0.29465893593092773	1.8907262222475485	-0.4917629449946156	-0.224415761997974	1.9982375334890687	-0.7619360714883707	-1.1748347622183943	1.8244481411411426	0.1412510469844798	-0.9469243374461622	1.7674078553337869	-0.12094759328911812
61	2.033333333333333	-0.255866478435907	1.8371576790602666	-0.6516577672117336	-0.2722186843791508	1.8352941581230249	-0.5840636319538599	-0.2765305214385827	1.7019222436792427	-0.5854594620640136	-0.2940437348639068	1.5664527997580269	-0.5687626690440502	-0.2836998457404089	1.5343121291369106	-0.5142032003596485	-0.2954422256810362	1.5449801620014671	-0.49829272607585545	-0.29683270940609874	1.5498590577766882	-0.5813723988883704	-0.24076979092204656	1.8392900434963733	-0.7085750943939544	-0.24146523436880557	1.7057778277715752	-0.6936599608586561	-0.2420055273115262	1.5756574266640357	-0.7336205761882466	-0.23669904715775472	1.5380758360683568	-0.7075612060643779	-0.22583944660181093	1.5418812794334595	-0.743651994369399				-0.24754651534630556	1.9903500365207993	-0.6620206111558778	-0.2349894674501534	2.046957731276583	-0.6238350970927327	-0.271352690786632	1.9837507081641363	-0.566005043533922	-0.2872775609794357	1.9175414064037841	-0.5248642575612953	-0.29465893593092773	1.8907262222475485	-0.4917629449946156	-0.22448547070243308	1.9983440423517502	-0.761733886314382	-1.1771965560414086	1.8262315722384714	0.14431660252533943	-0.9469243374461622	1.7674078553337869	-0.12094759328911812
62	2.066666666666667	-0.25595265080492025	1.8376393441428072	-0.6518007155159551	-0.2721810501346117	1.8341906455351553	-0.5840660508797826	-0.2770794402031735	1.7026820511307936	-0.5849444370656891	-0.2940437348639068	1.5664527997580269	-0.5687626690440502	-0.2836998457404089	1.5343121291369106	-0.5142032003596485	-0.2954422256810362	1.5449801620014671	-0.49829272607585545	-0.29683270940609874	1.5498590577766882	-0.5813723988883704	-0.23886646350265697	1.8409730044422696	-0.7109571452951711	-0.23643671345164263	1.7081932982846113	-0.6946065006086086	-0.2420055273115262	1.5756574266640357	-0.7336205761882466	-0.23669904715775472	1.5380758360683568	-0.7075612060643779	-0.22583944660181093	1.5418812794334595	-0.743651994369399				-0.24952000547971318	1.9912971723665491	-0.6598226697317331	-0.23504767581480876	2.0468848172870215	-0.6238208644405322	-0.2724615779648699	1.9833546224367788	-0.5607162684804177	-0.29279509109098467	1.9093300732886114	-0.5144705879295162	-0.29465893593092773	1.8907262222475485	-0.4917629449946156	-0.22673075159340042	1.9980925932013083	-0.759608916418717	-1.1832164440796809	1.8243924656983104	0.15438084044615688	-0.9469243374461622	1.7674078553337869	-0.12094759328911812
63	2.1	-0.25638629653788503	1.83521551202396	-0.6514485741670457	-0.27372294495797816	1.8334581906181202	-0.5868445765957658	-0.2776283589677643	1.7034418585823443	-0.5844294120673645	-0.2940437348639068	1.5664527997580269	-0.5687626690440502	-0.2836998457404089	1.5343121291369106	-0.5142032003596485	-0.2954422256810362	1.5449801620014671	-0.49829272607585545	-0.29683270940609874	1.5498590577766882	-0.5813723988883704	-0.23992656473860435	1.8400522495450413	-0.7137560494447458	-0.2317598663800661	1.7109997611460046	-0.6994984584379978	-0.2420055273115262	1.5756574266640357	-0.7336205761882466	-0.23669904715775472	1.5380758360683568	-0.7075612060643779	-0.22583944660181093	1.5418812794334595	-0.743651994369399				-0.25052379739204655	1.9923853765791548	-0.6632019562323986	-0.23314381890730893	2.0459571692425955	-0.6261324753108718	-0.2734395287592497	1.983534123384796	-0.5638114531588757	-0.29831262120253366	1.9011187401734386	-0.5040769182977372	-0.29465893593092773	1.8907262222475485	-0.4917629449946156	-0.2268241741154187	1.9991689543578266	-0.760022987327902	-1.1715376525476418	1.8269708413620909	0.13860872594123677	-0.9469243374461622	1.7674078553337869	-0.12094759328911812
64	2.1333333333333333	-0.2563622092316669	1.8353941398928273	-0.6515900150375213	-0.27362346888753514	1.8323460805667071	-0.5869109187102436	-0.279703376133691	1.7039593396519914	-0.5822166357529114	-0.2940437348639068	1.5664527997580269	-0.5687626690440502	-0.2836998457404089	1.5343121291369106	-0.5142032003596485	-0.2954422256810362	1.5449801620014671	-0.49829272607585545	-0.29683270940609874	1.5498590577766882	-0.5813723988883704	-0.24007067730205148	1.838917094725111	-0.7137579919261295	-0.22783183355565992	1.7114151393186547	-0.707700306296898	-0.2420055273115262	1.5756574266640357	-0.7336205761882466	-0.23669904715775472	1.5380758360683568	-0.7075612060643779	-0.22583944660181093	1.5418812794334595	-0.743651994369399				-0.24946885200248242	1.9911482128420717	-0.6685092939399444	-0.23406685709178426	2.046116612890797	-0.6298788684736765	-0.272448467467897	1.983243658221981	-0.5691698931681272	-0.2932321514971529	1.9162089589893525	-0.5086962326280426	-0.29465893593092773	1.8907262222475485	-0.4917629449946156	-0.22771916974105424	1.9977657905638058	-0.7630305962360565	-1.1573594288512263	1.8254115216494076	0.11889036330045243	-0.9469243374461622	1.7674078553337869	-0.12094759328911812
65	2.1666666666666665	-0.25282115059299576	1.8376901678927606	-0.6595249290868407	-0.26806275373180916	1.8332313199743535	-0.5971284363091931	-0.279703376133691	1.7039593396519914	-0.5822166357529114	-0.2940437348639068	1.5664527997580269	-0.5687626690440502	-0.2836998457404089	1.5343121291369106	-0.5142032003596485	-0.2954422256810362	1.5449801620014671	-0.49829272607585545	-0.29683270940609874	1.5498590577766882	-0.5813723988883704	-0.23489904279748164	1.8405265165086995	-0.7270031888438581	-0.22727627836974829	1.7115334793883583	-0.7167950141212667	-0.2420055273115262	1.5756574266640357	-0.7336205761882466	-0.23669904715775472	1.5380758360683568	-0.7075612060643779	-0.22583944660181093	1.5418812794334595	-0.743651994369399				-0.24806758240977886	1.9909322825872258	-0.6739050914424449	-0.22908890937500748	2.045179071852569	-0.6407595400978617	-0.2651879403406817	1.982906201277419	-0.5810340486791198	-0.289539781608211	1.9147241720792507	-0.5192546784215999	-0.29465893593092773	1.8907262222475485	-0.4917629449946156	-0.22336503428697715	1.9976730604569735	-0.7676067713671049	-1.1398861870031367	1.8257685508795283	0.09169913851388255	-0.9469243374461622	1.7674078553337869	-0.12094759328911812
